PathFileType	4	(X/Y/Z)	 s10c0201.trc
DataRate	CameraRate	NumFrames	NumMarkers	Units	OrigDataRate	OrigDataStartFrame	OrigNumFrames
200	200	4	50	mm	200	1	2000
Frame#	Time	racr			lacr			c7			jug			rlel			rdr			llel			ldr			s2			lic			ric			lasi			rasi			rpsi			lpsi			rgt			lgt			rth1			rth2			rth3			rth4			rlfc			rmfc			rsh1			rsh2			rsh3			rsh4			rlmal			rmmal			rcal			rtoe			rmt5			lth1			lth2			lth4			lth3			llfc			lmfc			llmal			lmmal			lcal			lmt5			lsh1			lsh2			lsh3			lsh4			ltoe			SBIKE			LBIKE			RBIKE			
		X1	Y1	Z1	X2	Y2	Z2	X3	Y3	Z3	X4	Y4	Z4	X5	Y5	Z5	X6	Y6	Z6	X7	Y7	Z7	X8	Y8	Z8	X9	Y9	Z9	X10	Y10	Z10	X11	Y11	Z11	X12	Y12	Z12	X13	Y13	Z13	X14	Y14	Z14	X15	Y15	Z15	X16	Y16	Z16	X17	Y17	Z17	X18	Y18	Z18	X19	Y19	Z19	X20	Y20	Z20	X21	Y21	Z21	X22	Y22	Z22	X23	Y23	Z23	X24	Y24	Z24	X25	Y25	Z25	X26	Y26	Z26	X27	Y27	Z27	X28	Y28	Z28	X29	Y29	Z29	X30	Y30	Z30	X31	Y31	Z31	X32	Y32	Z32	X33	Y33	Z33	X34	Y34	Z34	X35	Y35	Z35	X36	Y36	Z36	X37	Y37	Z37	X38	Y38	Z38	X39	Y39	Z39	X40	Y40	Z40	X41	Y41	Z41	X42	Y42	Z42	X43	Y43	Z43	X44	Y44	Z44	X45	Y45	Z45	X46	Y46	Z46	X47	Y47	Z47	X48	Y48	Z48	X49	Y49	Z49	X50	Y50	Z50	
1	0.0050	403.374487	1339.178149	-28.255974	432.495983	1350.452506	-353.663376	400.748861	1378.377015	-194.665787	420.024023	1238.432494	-187.637537	468.860235	1081.990719	39.256708	626.964198	913.504657	2.306730	493.379522	1082.865965	-436.576299	642.912381	912.170626	-385.658847	-74.852974	1107.512454	-221.080887	98.348401	1094.659163	-365.169968	103.233561	1104.285878	-67.158840	113.906835	1006.015115	-332.982713	91.615437	1018.966476	-78.806997	-28.646311	1144.631786	-160.272027	-16.039881	1148.059103	-272.495655	-33.118453	1022.059227	-18.919903	-19.373917	984.781649	-414.451032	55.755969	928.498949	15.693318	144.303407	919.200563	9.468734	213.277885	868.112512	10.656319	156.225819	953.510984	-2.412988	323.389933	823.396861	-2.224724	327.865636	815.232762	-119.175668	263.708762	718.909993	11.728908	264.562094	631.360056	-5.873940	222.518964	557.725726	-21.779615	296.955576	628.385077	-25.818954	201.160795	456.784655	-47.892585	229.584719	481.356099	-122.274037	152.749868	431.049991	-96.833217	394.698491	425.527258	-80.441682	311.426407	394.750806	-22.577473	47.259027	872.435780	-433.053736	122.489327	829.709351	-421.314133	146.688891	854.933242	-408.750143	166.371111	752.453797	-416.849391	237.917651	667.124479	-396.862880	239.142262	659.830263	-276.443870	-6.703584	384.604374	-378.293668	7.284049	377.048253	-300.025037	-65.310794	391.041186	-334.639534	38.466334	248.089876	-396.804129	143.828676	587.439349	-421.674447	117.761805	502.781505	-404.392431	50.793109	444.965011	-396.899504	144.091235	491.219029	-380.760886	118.435166	218.111790	-339.270978	-204.738285	835.628609	-225.030718	-78.588327	81.554216	-423.629879	-102.315943	81.314514	-24.056447	
2	0.0100	403.446030	1339.166148	-28.082642	433.405805	1351.149123	-354.172616	401.236296	1378.602846	-194.864033	420.248459	1238.479818	-187.638620	468.778451	1081.898160	39.460793	626.959339	913.504027	2.422923	493.291534	1082.830155	-436.604351	642.894675	912.159908	-385.621009	-74.754838	1107.075292	-220.794337	98.645250	1094.494751	-365.116868	103.423904	1104.136840	-67.218031	114.037681	1005.869408	-332.983637	91.711611	1018.956575	-78.796348	-28.253817	1144.659636	-160.356924	-15.736434	1148.013784	-272.559369	-33.054321	1022.188743	-18.936749	-19.270078	984.784245	-414.491858	55.758203	928.558108	15.693427	144.275514	919.278535	9.497445	213.264969	868.185627	10.730769	156.253629	953.608697	-2.405689	323.393835	823.445217	-2.150384	327.850916	815.298060	-119.101631	263.731818	718.945741	11.780294	264.596645	631.403871	-5.824538	222.546567	557.774965	-21.747054	296.985975	628.420495	-25.775731	201.197293	456.823296	-47.874335	229.588723	481.392820	-122.236862	152.765693	431.105408	-96.869988	394.720043	425.523134	-80.449686	311.463009	394.763184	-22.581619	47.299631	872.415500	-433.096966	122.526723	829.670319	-421.343712	146.728349	854.892721	-408.777787	166.403023	752.393187	-416.876778	237.928682	667.032935	-396.887520	239.127679	659.763533	-276.502090	-6.753173	384.579125	-378.302815	7.290998	377.015193	-300.046655	-65.375805	391.010530	-334.648491	38.475902	248.091859	-396.806867	143.816202	587.387198	-421.704239	117.719496	502.720930	-404.379997	50.737888	444.922677	-396.906743	144.070651	491.175012	-380.786767	118.445285	218.131783	-339.262233	-204.718358	835.522052	-224.934035	-78.422445	83.012483	-422.736039	-102.323521	81.305428	-24.062551	
3	0.0150	403.502899	1339.167837	-27.918696	432.426441	1350.345521	-353.908337	401.115745	1378.455040	-194.604397	420.502284	1238.562805	-187.592044	468.712134	1081.814948	39.609648	626.950806	913.506554	2.549183	493.218811	1082.767379	-436.631784	642.876572	912.148841	-385.588948	-74.421946	1107.616011	-221.211879	98.906043	1094.335534	-365.083757	103.645208	1103.995341	-67.262977	114.182479	1005.701876	-332.987319	91.812841	1018.942690	-78.767445	-27.948717	1144.641335	-160.456089	-15.414136	1148.000114	-272.607600	-32.974018	1022.296631	-18.972997	-19.144945	984.751321	-414.526532	55.731860	928.673810	15.704651	144.278445	919.356856	9.535918	213.253593	868.255909	10.801368	156.224034	953.674621	-2.367660	323.354575	823.487853	-2.068036	327.850569	815.344960	-119.023774	263.732343	718.997851	11.865900	264.610040	631.435372	-5.754734	222.567121	557.785198	-21.716258	296.987832	628.452085	-25.711609	201.226866	456.864290	-47.860059	229.636838	481.412986	-122.219006	152.806608	431.154857	-96.898635	394.739624	425.484244	-80.444970	311.477731	394.747229	-22.580222	47.347979	872.392186	-433.123647	122.583721	829.645573	-421.382291	146.772283	854.854008	-408.819159	166.433621	752.362198	-416.906437	237.950235	666.984327	-396.934200	239.140525	659.710948	-276.533459	-6.803159	384.583052	-378.306836	7.238795	376.998634	-300.034297	-65.421343	390.984023	-334.647137	38.454639	248.099031	-396.818024	143.801720	587.360303	-421.724603	117.698114	502.675534	-404.403455	50.700820	444.911332	-396.915630	144.041156	491.138564	-380.814769	118.451672	218.186646	-339.282124	-204.716067	835.520160	-224.947690	-78.405715	83.023777	-422.730910	-102.315798	81.308081	-24.062589	
4	0.0200	403.567709	1339.160429	-27.759179	433.285634	1351.042364	-354.456525	401.293718	1378.503270	-194.566424	420.746964	1238.626442	-187.549546	468.698478	1081.636104	39.636607	626.918333	913.525039	2.635566	493.115397	1082.697917	-436.694788	642.853665	912.146052	-385.578112	-74.189887	1107.652344	-221.261966	99.191581	1094.212231	-365.063784	103.800423	1104.056851	-67.292343	114.848216	1005.700323	-332.988090	91.895958	1018.908499	-78.786822	-27.676440	1144.666754	-160.524134	-14.767754	1147.792845	-272.817632	-32.895864	1022.411138	-18.987607	-19.370237	984.631498	-414.049170	55.719027	928.755312	15.724887	144.521262	919.325819	9.607956	213.227538	868.316123	10.872876	156.294102	953.580297	-2.442242	323.465286	823.597226	-1.030237	327.879006	815.398758	-118.944254	263.756975	718.981883	11.934569	264.767811	631.632438	-5.633743	222.521778	557.882691	-21.628997	296.932575	628.486114	-25.677288	201.175029	456.946791	-47.776734	230.664801	482.490307	-121.929711	152.878359	431.205683	-96.890199	394.769240	425.447763	-80.443316	311.370899	394.779410	-22.526298	47.403481	872.375841	-433.176103	122.643110	829.585484	-421.416613	146.840249	855.039525	-409.062234	166.468073	752.340840	-416.964424	237.961611	666.937064	-396.979772	239.178748	659.652724	-276.578524	-6.871481	384.606687	-378.312913	7.256944	377.007842	-300.065389	-65.475837	390.974740	-334.659785	38.427159	248.117384	-396.821587	143.695947	586.462525	-420.845823	117.884129	502.999772	-405.159421	50.758265	445.567663	-397.564724	143.448790	491.008956	-379.797646	118.454656	218.240627	-339.276807	-204.732032	835.613113	-225.028334	-78.416558	83.027395	-422.728314	-102.314620	81.292989	-24.059742	
